<svg width="181" height="218" viewBox="0 0 181 218" fill="none" xmlns="http://www.w3.org/2000/svg">
<g clip-path="url(#clip0)">
<path d="M3.95937 63.9863L3.93816 63.9722C3.93463 63.9757 3.93463 63.9828 3.93463 63.9863C1.37518 72.3682 0 81.2697 0 90.5C0 99.7303 1.37518 108.632 3.93463 117.014C3.93463 117.021 3.93463 117.024 3.93816 117.031L39.2508 90.5L3.95937 63.9863ZM7.91521 127.619C16.9758 147.794 33.2057 164.024 53.3809 173.085V127.619H7.91521ZM117.014 177.037L90.5 141.749L63.9722 177.062C63.9757 177.065 63.9828 177.065 63.9863 177.065C72.3682 179.625 81.2697 181 90.5 181C99.7303 181 108.632 179.625 117.014 177.065C117.021 177.065 117.024 177.065 117.031 177.062L117.014 177.037ZM127.619 127.619V173.085C147.794 164.024 164.024 147.794 173.085 127.619H127.619ZM127.619 7.91521V53.3809H173.085C164.024 33.2057 147.794 16.9758 127.619 7.91521ZM56.4847 63.9863H21.6175L49.8457 85.1973H77.6957L56.4847 63.9863ZM95.8027 49.8457V77.6957L117.014 56.4847V21.6175L95.8027 49.8457ZM124.515 63.9863L103.304 85.1973H131.154L159.383 63.9863H124.515ZM49.8457 95.8027L21.6139 117.014H56.4847L77.6957 95.8027H49.8457ZM63.9863 124.515V159.383L85.1973 131.154V103.304L63.9863 124.515ZM95.8027 103.301V131.154L117.014 159.383V124.512L95.8027 103.301ZM131.154 95.8027H103.301L124.512 117.014H159.383L131.154 95.8027ZM63.9863 21.6139V56.4847L85.1973 77.6957V49.8457L63.9863 21.6139ZM117.014 3.93463C108.632 1.37518 99.7303 0 90.5 0C81.2697 0 72.3682 1.37518 63.9863 3.93463C63.9793 3.93463 63.9757 3.93463 63.9687 3.93816L90.5 39.2508L117.031 3.93816C117.024 3.93463 117.021 3.93463 117.014 3.93463V3.93463ZM177.065 63.9863C177.065 63.9793 177.065 63.9757 177.062 63.9687L141.749 90.5L177.062 117.028C177.065 117.024 177.065 117.017 177.065 117.014C179.625 108.632 181 99.7303 181 90.5C181 81.2697 179.625 72.3682 177.065 63.9863ZM7.91521 53.3809H53.3809V7.91521C33.2057 16.9758 16.9758 33.2057 7.91521 53.3809Z" fill="white"/>
<path d="M117.031 3.93811L117.014 3.96285V3.93457C117.021 3.93457 117.024 3.93457 117.031 3.93811Z" fill="black"/>
<path d="M127.619 7.50513V7.9152C127.541 7.87985 127.464 7.8445 127.386 7.81269L127.619 7.50513Z" fill="black"/>
<path d="M173.498 53.3809L173.187 53.6142C173.155 53.5364 173.12 53.4586 173.085 53.3809H173.498Z" fill="black"/>
<path d="M177.065 63.9863H177.041L177.062 63.9686C177.065 63.9757 177.065 63.9792 177.065 63.9863Z" fill="black"/>
<path d="M117.014 177.037L117.031 177.062C117.024 177.065 117.021 177.065 117.014 177.065V177.037Z" fill="black"/>
<path d="M127.386 173.187C127.464 173.155 127.541 173.12 127.619 173.085V173.498L127.386 173.187Z" fill="black"/>
<path d="M173.085 127.619C173.12 127.541 173.155 127.464 173.187 127.386L173.498 127.619H173.085Z" fill="black"/>
<path d="M177.065 117.014C177.065 117.017 177.065 117.024 177.062 117.028L177.041 117.014H177.065Z" fill="black"/>
<path d="M3.93463 117.014H3.95938L3.93817 117.031C3.93463 117.024 3.93463 117.021 3.93463 117.014Z" fill="black"/>
<path d="M7.80916 127.386L7.91522 127.619H7.49807L7.80916 127.386Z" fill="black"/>
<path d="M53.3809 173.085C53.4586 173.12 53.5364 173.155 53.6142 173.187L53.3809 173.498V173.085Z" fill="black"/>
<path d="M63.9863 177.041V177.065C63.9828 177.065 63.9757 177.065 63.9722 177.062L63.9863 177.041Z" fill="black"/>
<path d="M3.93817 63.9722L3.95938 63.9863H3.93463C3.93463 63.9828 3.93463 63.9757 3.93817 63.9722Z" fill="black"/>
<path d="M7.91522 53.3809C7.87987 53.4586 7.84452 53.5364 7.8127 53.6142L7.50514 53.3809H7.91522Z" fill="black"/>
<path d="M53.6142 7.80915C53.5364 7.8445 53.4586 7.87985 53.3809 7.9152V7.50159L53.6142 7.80915Z" fill="black"/>
<path d="M63.9863 3.93457V3.96285L63.9687 3.93811C63.9757 3.93457 63.9793 3.93457 63.9863 3.93457Z" fill="black"/>
</g>
<path d="M57.708 211.994C57.708 212.834 57.5518 213.62 57.2393 214.353C56.9268 215.075 56.4971 215.71 55.9502 216.257C55.4131 216.794 54.7783 217.219 54.0459 217.531C53.3232 217.844 52.5469 218 51.7168 218H33.4648V214.997H51.7168C52.1367 214.997 52.5273 214.919 52.8887 214.763C53.25 214.606 53.5625 214.392 53.8262 214.118C54.0996 213.845 54.3145 213.527 54.4707 213.166C54.627 212.795 54.7051 212.404 54.7051 211.994C54.7051 211.584 54.627 211.198 54.4707 210.837C54.3145 210.476 54.0996 210.158 53.8262 209.885C53.5625 209.611 53.25 209.396 52.8887 209.24C52.5273 209.084 52.1367 209.006 51.7168 209.006H39.4707C38.6504 209.006 37.874 208.85 37.1416 208.537C36.4092 208.225 35.7695 207.8 35.2227 207.263C34.6855 206.716 34.2559 206.076 33.9336 205.344C33.6211 204.611 33.4648 203.83 33.4648 203C33.4648 202.18 33.6211 201.403 33.9336 200.671C34.2559 199.938 34.6855 199.304 35.2227 198.767C35.7695 198.22 36.4092 197.79 37.1416 197.478C37.874 197.155 38.6504 196.994 39.4707 196.994H56.2139V199.997H39.4707C39.0605 199.997 38.6699 200.075 38.2988 200.231C37.9375 200.388 37.6201 200.603 37.3467 200.876C37.0732 201.149 36.8584 201.472 36.7021 201.843C36.5459 202.204 36.4678 202.59 36.4678 203C36.4678 203.41 36.5459 203.801 36.7021 204.172C36.8584 204.533 37.0732 204.851 37.3467 205.124C37.6201 205.397 37.9375 205.612 38.2988 205.769C38.6699 205.925 39.0605 206.003 39.4707 206.003H51.7168C52.5469 206.003 53.3232 206.164 54.0459 206.486C54.7783 206.799 55.4131 207.229 55.9502 207.775C56.4971 208.312 56.9268 208.947 57.2393 209.68C57.5518 210.402 57.708 211.174 57.708 211.994ZM79.666 218H64.666C63.9336 218 63.25 217.863 62.6152 217.59C61.9805 217.316 61.4238 216.945 60.9453 216.477C60.4668 215.998 60.0908 215.441 59.8174 214.807C59.5439 214.162 59.4072 213.479 59.4072 212.756C59.4072 212.023 59.5439 211.34 59.8174 210.705C60.0908 210.07 60.4668 209.514 60.9453 209.035C61.4238 208.557 61.9805 208.181 62.6152 207.907C63.25 207.634 63.9336 207.497 64.666 207.497H75.1543V210.5H64.666C64.3535 210.5 64.0605 210.563 63.7871 210.69C63.5137 210.808 63.2744 210.969 63.0693 211.174C62.8643 211.379 62.7031 211.618 62.5859 211.892C62.4688 212.165 62.4102 212.453 62.4102 212.756C62.4102 213.068 62.4688 213.361 62.5859 213.635C62.7031 213.898 62.8643 214.133 63.0693 214.338C63.2744 214.543 63.5137 214.704 63.7871 214.821C64.0605 214.938 64.3535 214.997 64.666 214.997H76.6631V206.75C76.6631 206.447 76.5996 206.159 76.4727 205.886C76.3555 205.612 76.1943 205.373 75.9893 205.168C75.7842 204.963 75.5449 204.802 75.2715 204.685C74.998 204.558 74.71 204.494 74.4072 204.494H62.4102V201.506H74.4072C75.1396 201.506 75.8232 201.643 76.458 201.916C77.0928 202.189 77.6494 202.565 78.1279 203.044C78.6064 203.513 78.9824 204.064 79.2559 204.699C79.5293 205.334 79.666 206.018 79.666 206.75V218ZM100.379 198.503H92.0732C91.3506 198.513 90.6719 198.659 90.0371 198.942C89.4121 199.216 88.8652 199.592 88.3965 200.07C87.9277 200.539 87.5566 201.091 87.2832 201.726C87.0098 202.36 86.873 203.034 86.873 203.747V218H83.8701V203C83.8701 201.945 84.0947 200.964 84.5439 200.056C85.0029 199.138 85.6084 198.347 86.3604 197.683C87.1221 197.009 87.9961 196.481 88.9824 196.101C89.9688 195.71 90.999 195.51 92.0732 195.5H100.379V198.503ZM106.019 218H103.016V206.003H88.3818V203H106.019V218ZM106.766 197.756C106.766 198.068 106.702 198.361 106.575 198.635C106.458 198.898 106.297 199.133 106.092 199.338C105.887 199.543 105.647 199.704 105.374 199.821C105.101 199.938 104.812 199.997 104.51 199.997C104.207 199.997 103.919 199.938 103.646 199.821C103.372 199.704 103.133 199.543 102.928 199.338C102.723 199.133 102.562 198.898 102.444 198.635C102.327 198.361 102.269 198.068 102.269 197.756C102.269 197.453 102.327 197.165 102.444 196.892C102.562 196.618 102.723 196.379 102.928 196.174C103.133 195.969 103.372 195.808 103.646 195.69C103.919 195.563 104.207 195.5 104.51 195.5C104.812 195.5 105.101 195.563 105.374 195.69C105.647 195.808 105.887 195.969 106.092 196.174C106.297 196.379 106.458 196.618 106.575 196.892C106.702 197.165 106.766 197.453 106.766 197.756ZM126.717 204.494H115.467C115.154 204.494 114.861 204.558 114.588 204.685C114.314 204.802 114.075 204.963 113.87 205.168C113.665 205.373 113.504 205.612 113.387 205.886C113.27 206.159 113.211 206.447 113.211 206.75V218H110.208V206.75C110.208 206.018 110.345 205.334 110.618 204.699C110.892 204.064 111.268 203.513 111.746 203.044C112.225 202.565 112.781 202.189 113.416 201.916C114.051 201.643 114.734 201.506 115.467 201.506H126.717V204.494ZM147.43 218H132.43C131.697 218 131.014 217.863 130.379 217.59C129.744 217.316 129.188 216.945 128.709 216.477C128.23 215.998 127.854 215.441 127.581 214.807C127.308 214.162 127.171 213.479 127.171 212.756C127.171 212.023 127.308 211.34 127.581 210.705C127.854 210.07 128.23 209.514 128.709 209.035C129.188 208.557 129.744 208.181 130.379 207.907C131.014 207.634 131.697 207.497 132.43 207.497H142.918V210.5H132.43C132.117 210.5 131.824 210.563 131.551 210.69C131.277 210.808 131.038 210.969 130.833 211.174C130.628 211.379 130.467 211.618 130.35 211.892C130.232 212.165 130.174 212.453 130.174 212.756C130.174 213.068 130.232 213.361 130.35 213.635C130.467 213.898 130.628 214.133 130.833 214.338C131.038 214.543 131.277 214.704 131.551 214.821C131.824 214.938 132.117 214.997 132.43 214.997H144.427V206.75C144.427 206.447 144.363 206.159 144.236 205.886C144.119 205.612 143.958 205.373 143.753 205.168C143.548 204.963 143.309 204.802 143.035 204.685C142.762 204.558 142.474 204.494 142.171 204.494H130.174V201.506H142.171C142.903 201.506 143.587 201.643 144.222 201.916C144.856 202.189 145.413 202.565 145.892 203.044C146.37 203.513 146.746 204.064 147.02 204.699C147.293 205.334 147.43 206.018 147.43 206.75V218Z" fill="white"/>
<defs>
<clipPath id="clip0">
<rect width="181" height="181" fill="white"/>
</clipPath>
</defs>
</svg>
